<svg width="40" height="40" viewBox="0 0 40 40" fill="none" xmlns="http://www.w3.org/2000/svg">
<path d="M38.2264 9.5064C37.676 9.0728 36.2 8.7248 35.0952 8.4656L33.6 8.2656V4.6512L34.3656 4.6392C35.0832 5.0032 36.1168 5.6 36.1704 6.4H39.0536C39 4.8 37.7848 3.7904 36.7032 2.9888C35.9856 2.4568 35.2 2.1728 33.6 2.0008V0H32V1.9392C30.4 2.0928 29.8832 2.4912 29.1608 3.1416C28.216 3.992 27.7952 5.0592 27.7952 6.344C27.7952 7.752 28.1976 8.7864 29.1648 9.4488C29.7056 9.824 30.4 10.1728 32 10.496V14.412C31.2 14.2704 31.1984 14.3064 30.916 13.9712C30.644 13.6464 30.5696 12.8 30.4768 12.8H27.616C27.616 14.4 28.0488 15.1664 29.132 16.02C29.9128 16.6352 30.4 16.744 32 16.9056V18.4H33.6V16.9312C35.2 16.7768 36.5592 16.3696 37.3408 15.7024C38.3552 14.836 39.1848 13.7472 39.1848 12.4368C39.184 11.1584 39.0816 10.1824 38.2264 9.5064V9.5064ZM31.2144 7.2776C30.7488 7.024 30.5696 6.64 30.5696 6.1272C30.5696 5.5688 30.724 5.132 31.196 4.82C31.4448 4.656 31.2 4.5368 32 4.4576V7.6096C31.2 7.488 31.3904 7.3776 31.2144 7.2776V7.2776ZM34.6888 14.3336C34.5544 14.38 33.6 14.4168 33.6 14.4496V11.116C35.2 11.2536 35.0768 11.4016 35.3424 11.5624C35.7592 11.8216 35.9688 12.1912 35.9688 12.664C35.9688 13.4768 35.5408 14.0344 34.6888 14.3336ZM30.816 24H30.3736L25.4584 15.1C25.2464 14.7152 24.712 14.4 24.272 14.4H9.35919C8.91919 14.4 8.38479 14.7152 8.17279 15.1L3.25759 24H2.81599C1.93519 24 0.799988 24.72 0.799988 25.6V33.6C0.799988 34.48 1.93519 35.2 2.81599 35.2H3.99999V37.6C3.99999 38.92 5.49599 40 6.81599 40H7.61599C8.93599 40 9.59999 38.92 9.59999 37.6V35.2H23.2V37.6C23.2 38.92 24.6952 40 26.016 40H26.816C28.136 40 28.8 38.92 28.8 37.6V35.2H30.816C31.696 35.2 32 34.48 32 33.6V25.6C32 24.72 31.6952 24 30.816 24ZM5.61599 30.4C5.08555 30.4 4.57685 30.1893 4.20177 29.8142C3.8267 29.4391 3.61599 28.9304 3.61599 28.4C3.61599 27.8696 3.8267 27.3609 4.20177 26.9858C4.57685 26.6107 5.08555 26.4 5.61599 26.4C6.14642 26.4 6.65513 26.6107 7.0302 26.9858C7.40527 27.3609 7.61599 27.8696 7.61599 28.4C7.61599 28.9304 7.40527 29.4391 7.0302 29.8142C6.65513 30.1893 6.14642 30.4 5.61599 30.4V30.4ZM7.21599 24L10.4584 17.516C10.6544 17.1216 11.176 16.8 11.616 16.8H22.016C22.456 16.8 22.9768 17.1216 23.1736 17.516L26.416 24H7.21599ZM28.016 30.4C27.4856 30.4 26.9768 30.1893 26.6018 29.8142C26.2267 29.4391 26.016 28.9304 26.016 28.4C26.016 27.8696 26.2267 27.3609 26.6018 26.9858C26.9768 26.6107 27.4856 26.4 28.016 26.4C28.5464 26.4 29.0551 26.6107 29.4302 26.9858C29.8053 27.3609 30.016 27.8696 30.016 28.4C30.016 28.9304 29.8053 29.4391 29.4302 29.8142C29.0551 30.1893 28.5464 30.4 28.016 30.4V30.4Z" fill="white"/>
</svg>
