<svg width="129" height="26" viewBox="0 0 129 26" fill="none" xmlns="http://www.w3.org/2000/svg">
<path d="M0.211792 11.1766C0.211792 10.7332 0.43131 10.373 0.87033 10.0959C1.30935 9.81885 1.77023 9.6803 2.25343 9.6803C3.0659 9.6803 3.57049 10.0682 3.76814 10.8441C3.81185 10.9549 4.16856 12.3512 4.83825 15.0338C5.50794 17.716 5.99626 19.5781 6.30367 20.6202L9.76096 10.9775C10.0684 10.2458 10.672 9.88038 11.5719 9.88038C12.4937 9.88038 13.1415 10.3571 13.5145 11.31L16.9388 20.5202L18.7827 13.4713C19.0241 12.4296 19.2548 11.5758 19.4743 10.9108C19.7157 10.2016 20.2207 9.84655 20.989 9.84655C21.4722 9.84655 21.9219 9.99074 22.3391 10.2786C22.7562 10.5665 22.9757 10.9216 22.9976 11.3428C22.9976 11.5645 22.9646 11.7749 22.899 11.9745C22.8553 12.13 22.4712 13.4041 21.7466 15.7984C21.022 18.1926 20.4956 19.8773 20.1663 20.8527C19.6394 22.4927 19.3101 23.4682 19.1785 23.7786C18.8492 24.7315 18.147 25.2082 17.0713 25.2082C16.0616 25.2082 15.3701 24.6986 14.9971 23.6786C14.6241 22.814 13.9763 21.1016 13.0545 18.5416C12.1328 15.9811 11.6496 14.6567 11.6059 14.5679L8.54389 22.7149C8.21462 23.6457 7.87977 24.3056 7.53935 24.693C7.19939 25.0809 6.67758 25.2749 5.97533 25.2749C5.29494 25.2749 4.80663 25.1307 4.50992 24.8428C4.21367 24.5545 3.95602 24.089 3.73605 23.4456L0.278767 11.542C0.233656 11.4532 0.211792 11.3316 0.211792 11.1766Z" fill="#222222"/>
<path d="M26.8144 0.802124C27.9776 0.802124 28.5594 1.40045 28.5594 2.59758C28.5594 2.88594 28.5538 3.30158 28.5426 3.84449C28.5319 4.3874 28.5208 5.42391 28.5101 6.95354C28.4989 8.48318 28.4826 10.2345 28.4608 12.2075C28.8779 11.4096 29.5034 10.7722 30.3378 10.2955C31.1716 9.81885 32.0938 9.58076 33.1035 9.58076C34.9475 9.58076 36.3854 10.2124 37.417 11.4762C38.4485 12.7401 38.9647 14.358 38.9647 16.331V18.4923V21.1688V23.6128C38.9428 24.6545 38.2955 25.1753 37.0221 25.1753C36.5175 25.1753 36.0892 25.0424 35.7381 24.7761C35.387 24.5099 35.2112 24.1219 35.2112 23.6124C35.3209 21.5069 35.3758 19.1676 35.3758 16.5963C35.3758 15.3992 35.0958 14.4735 34.5359 13.8198C33.9764 13.1656 33.1914 12.8387 32.1817 12.8387C31.1721 12.8387 30.294 13.2431 29.5476 14.0523C28.8012 14.8615 28.4282 15.8867 28.4282 17.128C28.4282 17.8371 28.4389 18.9901 28.4612 20.5864C28.4831 22.1823 28.4942 23.2132 28.4942 23.6786C28.4942 24.1886 28.324 24.5765 27.9841 24.8428C27.6436 25.1087 27.1884 25.242 26.6177 25.242C26.0908 25.242 25.6629 25.1035 25.3337 24.8259C25.0044 24.5488 24.8398 24.167 24.8398 23.6791C24.8398 23.1469 24.8561 22.3598 24.8891 21.3181C24.9216 20.2765 24.9384 19.5894 24.9384 19.2569L24.9054 2.79765C24.9049 1.46714 25.5411 0.802124 26.8144 0.802124Z" fill="#222222"/>
<path d="M42.0081 5.0416C41.6021 4.56491 41.443 3.97175 41.5309 3.26259C41.6188 2.64171 41.8932 2.15985 42.3541 1.81607C42.815 1.47276 43.3312 1.30087 43.9018 1.30087C44.6264 1.30087 45.1807 1.51127 45.5644 1.93255C45.9486 2.35382 46.1406 2.89673 46.1406 3.56175C46.1406 4.29346 45.91 4.842 45.4491 5.20739C44.9882 5.57324 44.3846 5.75593 43.6381 5.75593C42.9577 5.7564 42.4145 5.51829 42.0081 5.0416ZM42.5024 10.1124C42.8424 9.84655 43.2433 9.71317 43.7042 9.71317C44.2967 9.71317 44.758 9.86251 45.0873 10.1621C45.4165 10.4613 45.5812 10.9878 45.5812 11.7416V15.5321V19.2893V23.4456C45.603 24.0444 45.4551 24.4929 45.1366 24.7926C44.818 25.0917 44.3515 25.2415 43.7372 25.2415C43.2103 25.2415 42.7824 25.1086 42.4531 24.8424C42.1239 24.5761 41.9592 24.1881 41.9592 23.6781V11.3752C41.9811 10.7995 42.162 10.3782 42.5024 10.1124Z" fill="#222222"/>
<path d="M60.3641 12.0079C60.3641 12.4291 60.2269 12.8227 59.9526 13.1881C59.6782 13.5539 59.3215 13.7366 58.8824 13.7366C58.5532 13.7366 58.0811 13.5812 57.4668 13.2712C56.918 13.0275 56.2813 12.9054 55.5572 12.9054C54.3941 12.9054 53.4226 13.4041 52.6431 14.4016C51.8642 15.3992 51.4744 16.4855 51.4744 17.6601C51.4744 18.9234 51.853 19.9768 52.6106 20.8189C53.3677 21.6614 54.3169 22.0822 55.4586 22.0822C56.3367 22.0822 57.1598 21.8601 57.9281 21.4172C58.5867 21.0847 59.0257 20.9185 59.2452 20.9185C59.6405 20.9185 59.9805 21.1129 60.266 21.5003C60.5516 21.8883 60.6939 22.3044 60.6939 22.7473C60.6939 23.2573 60.4855 23.6565 60.0684 23.9444C58.8392 24.8973 57.2915 25.3745 55.4256 25.3745C53.0547 25.3745 51.2056 24.6094 49.8774 23.0798C48.5496 21.5501 47.8855 19.8542 47.8855 17.9921C47.9074 15.7974 48.6482 13.8522 50.1081 12.1567C51.5679 10.4608 53.4282 9.61267 55.6888 9.61267C57.2036 9.61267 58.5206 9.96725 59.64 10.6769C60.1228 11.0103 60.3641 11.4532 60.3641 12.0079Z" fill="#222222"/>
<path d="M64.2804 0.802124C65.444 0.802124 66.0258 1.40045 66.0258 2.59758C66.0258 2.88594 66.0202 3.30158 66.0091 3.84449C65.9984 4.3874 65.9872 5.42391 65.9765 6.95354C65.9658 8.48318 65.9491 10.2345 65.9277 12.2075C66.3444 11.4096 66.9703 10.7722 67.8042 10.2955C68.6381 9.81885 69.5598 9.58076 70.5699 9.58076C72.4139 9.58076 73.8519 10.2124 74.8834 11.4762C75.9149 12.7401 76.4302 14.358 76.4302 16.331V18.4923V21.1688V23.6128C76.4084 24.6545 75.761 25.1753 74.4881 25.1753C73.9831 25.1753 73.5552 25.0424 73.2036 24.7761C72.852 24.5099 72.6767 24.1219 72.6767 23.6124C72.7864 21.5069 72.8413 19.1676 72.8413 16.5963C72.8413 15.3992 72.5613 14.4735 72.0019 13.8198C71.4424 13.1656 70.6574 12.8387 69.6477 12.8387C68.6381 12.8387 67.76 13.2431 67.0136 14.0523C66.2672 14.8615 65.8942 15.8867 65.8942 17.128C65.8942 17.8371 65.9049 18.9901 65.9272 20.5864C65.9491 22.1823 65.9598 23.2132 65.9598 23.6786C65.9598 24.1886 65.79 24.5765 65.4491 24.8428C65.1092 25.1087 64.6534 25.242 64.0828 25.242C63.5558 25.242 63.1275 25.1035 62.7983 24.8259C62.469 24.5488 62.3044 24.167 62.3044 23.6791C62.3044 23.1469 62.3206 22.3598 62.3536 21.3181C62.3862 20.2765 62.4029 19.5894 62.4029 19.2569L62.3699 2.79765C62.3709 1.46714 63.0075 0.802124 64.2804 0.802124Z" fill="#222222"/>
<path d="M79.8694 10.1791C80.1884 9.8907 80.6326 9.74698 81.2027 9.74698C81.9929 9.74698 82.4542 10.1462 82.5863 10.9441L82.7179 12.7729C83.1783 11.7754 83.8206 10.9995 84.6437 10.4453C85.4674 9.89116 86.318 9.61407 87.196 9.61407C88.3596 9.61407 88.9409 10.1903 88.9409 11.3433C88.9409 11.8313 88.8149 12.2413 88.5624 12.5738C88.3098 12.9063 87.942 13.0726 87.4597 13.0726H86.8993C85.7804 13.0726 84.8363 13.5436 84.068 14.4857C83.2997 15.4278 82.9151 16.7076 82.9151 18.326C82.9151 18.6585 82.9258 19.4564 82.9477 20.7203C82.9704 21.9831 82.9704 22.9703 82.9477 23.6795C82.9258 24.6996 82.3119 25.2091 81.1037 25.2091C80.5117 25.2091 80.0671 25.0598 79.7703 24.7602C79.4741 24.461 79.3369 23.9345 79.3588 23.1807C79.4253 18.0602 79.4578 15.3339 79.4578 15.0009C79.4578 14.6243 79.4522 14.0419 79.4415 13.2552C79.4308 12.4686 79.4253 11.8754 79.4253 11.4762C79.4034 10.8995 79.5513 10.467 79.8694 10.1791Z" fill="#222222"/>
<path d="M90.2408 5.0416C89.8348 4.56491 89.6748 3.97175 89.7632 3.26259C89.8511 2.64171 90.1254 2.15985 90.5863 1.81607C91.0477 1.47276 91.5639 1.30087 92.134 1.30087C92.8582 1.30087 93.413 1.51127 93.7971 1.93255C94.1813 2.35382 94.3729 2.89673 94.3729 3.56175C94.3729 4.29346 94.1422 4.842 93.6818 5.20739C93.2204 5.57324 92.6173 5.75593 91.8704 5.75593C91.19 5.7564 90.6468 5.51829 90.2408 5.0416ZM90.7337 10.1124C91.0742 9.84655 91.4751 9.71317 91.9355 9.71317C92.5284 9.71317 92.9893 9.86251 93.319 10.1621C93.6478 10.4613 93.8129 10.9878 93.8129 11.7416V15.5321V19.2893V23.4456C93.8348 24.0444 93.6869 24.4929 93.3679 24.7926C93.0498 25.0917 92.5828 25.2415 91.969 25.2415C91.442 25.2415 91.0132 25.1086 90.6844 24.8424C90.3547 24.5765 90.1906 24.1881 90.1906 23.6781V11.3752C90.2124 10.7995 90.3943 10.3782 90.7337 10.1124Z" fill="#222222"/>
<path d="M111.625 10.3453C111.625 11.1212 111.62 12.2573 111.609 13.7536C111.598 15.2498 111.593 16.3967 111.593 17.1951C111.593 17.4835 111.603 18.3035 111.625 19.6556C111.647 21.0077 111.658 22.349 111.658 23.6791C111.658 24.7433 111.087 25.2749 109.946 25.2749C109.045 25.2749 108.519 24.8541 108.365 24.0116L108.234 22.5148C107.093 24.3995 105.468 25.3416 103.36 25.3416C101.209 25.3416 99.4751 24.5991 98.158 23.1141C96.841 21.6286 96.1824 19.8885 96.1824 17.8935C96.1824 15.5659 96.9117 13.6207 98.3715 12.0577C99.8313 10.4952 101.659 9.71367 103.854 9.71367C104.733 9.71367 105.55 9.902 106.307 10.2791C107.064 10.6558 107.652 11.1879 108.069 11.875L108.036 2.96343C108.036 1.6334 108.628 0.968384 109.813 0.968384C110.406 0.968384 110.872 1.1013 111.213 1.36759C111.553 1.63341 111.713 2.06594 111.69 2.66427L111.625 10.3453ZM100.99 20.8527C101.78 21.7169 102.735 22.1494 103.855 22.1494C105.062 22.1494 106.077 21.7282 106.9 20.8861C107.723 20.044 108.135 18.9244 108.135 17.5276C108.135 16.1088 107.751 14.9784 106.983 14.1358C106.214 13.2933 105.248 12.8725 104.085 12.8725C102.878 12.8725 101.863 13.3271 101.04 14.2359C100.216 15.1447 99.8043 16.3197 99.8043 17.7606C99.8043 18.9572 100.2 19.9881 100.99 20.8527Z" fill="#222222"/>
<path d="M118.686 21.019C119.444 21.7281 120.371 22.0832 121.468 22.0832C122.61 22.0832 123.674 21.784 124.663 21.1852C125.145 20.8973 125.574 20.7531 125.946 20.7531C126.341 20.7531 126.693 20.9302 127 21.2853C127.308 21.6403 127.461 22.039 127.461 22.4824C127.461 23.0586 127.132 23.5682 126.473 24.012C125.112 24.8987 123.345 25.3421 121.172 25.3421C119.131 25.3421 117.403 24.6272 115.987 23.1976C114.571 21.7676 113.841 20.0444 113.797 18.0268C113.797 15.6772 114.527 13.6878 115.987 12.0581C117.447 10.4289 119.241 9.61407 121.37 9.61407C123.236 9.61407 124.811 10.2349 126.095 11.4762C127.379 12.7175 128.021 14.1363 128.021 15.7322C128.021 16.6855 127.862 17.3562 127.544 17.7441C127.225 18.132 126.529 18.3368 125.454 18.3594C124.905 18.3814 124.279 18.3927 123.576 18.3927C122.874 18.3927 121.92 18.3983 120.712 18.4096C119.505 18.4204 118.418 18.426 117.452 18.426C117.517 19.4452 117.929 20.3098 118.686 21.019ZM118.752 13.6371C118.016 14.3462 117.594 15.1667 117.484 16.0975C120.733 16.0975 122.972 16.0534 124.201 15.9646C124.464 15.9205 124.596 15.8205 124.596 15.6655C124.596 14.7788 124.283 14.0414 123.657 13.4544C123.032 12.8673 122.291 12.5733 121.435 12.5733C120.382 12.5728 119.487 12.9279 118.752 13.6371Z" fill="#222222"/>
</svg>
