<svg width="31" height="41" viewBox="0 0 31 41" fill="none" xmlns="http://www.w3.org/2000/svg">
<path d="M10.8806 30.4692C10.8825 30.4692 10.8825 30.4664 10.8825 30.4664C10.8825 30.4664 10.8825 30.4645 10.8844 30.4645C12.7567 27.7941 15.3732 25.6925 18.4296 24.4672C18.4314 24.4672 18.4337 24.4648 18.4361 24.4648C18.603 24.4066 18.7723 24.3441 18.9351 24.276C18.9351 24.276 18.9369 24.2741 18.9393 24.2741C22.3315 22.8736 24.7237 19.5058 24.7237 15.5758C24.7237 15.1841 24.6996 14.7981 24.6517 14.421C24.5963 13.9424 24.5028 13.4765 24.3777 13.0242C23.2751 9.07592 19.6838 6.18289 15.422 6.18289C11.5899 6.18289 8.29675 8.52548 6.87226 11.8689C6.72902 12.2066 6.60345 12.556 6.5002 12.9139C5.96678 14.5694 5.67844 16.3376 5.67844 18.172C5.67844 23.0042 7.67217 27.3644 10.8732 30.4612C4.57577 28.5019 0 22.5787 0 15.5763C0 6.97471 6.90434 0 15.4243 0C17.5311 0 19.5411 0.427848 21.3692 1.19948C26.1645 3.22459 29.7325 7.62517 30.6254 12.9458C30.7091 13.4323 30.7691 13.9264 30.8045 14.4266C30.8324 14.8065 30.8459 15.1902 30.8459 15.5758C30.8459 18.5679 30.0106 21.3647 28.5596 23.7373C27.5509 25.3914 26.2454 26.8403 24.7177 28.005C24.6656 28.0412 24.3582 28.3023 24.061 28.4934C18.6705 31.9585 15.4225 33.1998 13.4957 40.2877C11.9554 37.8525 11.0127 34.9915 10.8811 31.919C10.8792 31.9153 10.8811 31.9134 10.8811 31.9134C10.8695 31.6602 10.863 31.409 10.863 31.1516C10.863 30.9267 10.8751 30.4786 10.8751 30.4786" fill="#9B51E0"/>
<path opacity="0.4" d="M18.4291 24.4676C15.3732 25.6925 12.7567 27.7946 10.8839 30.465C10.8821 30.465 10.8821 30.4669 10.8821 30.4669L10.8802 30.465C10.8802 30.465 10.8783 30.465 10.876 30.4631H10.8742L10.8718 30.4612C7.67079 27.3644 5.67706 23.0042 5.67706 18.172C5.67706 16.3376 5.9654 14.5694 6.49883 12.9138C6.25002 13.7578 6.11888 14.6515 6.11888 15.5758C6.11888 19.4499 8.4428 22.7774 11.7601 24.2135C11.9168 24.2821 12.0782 24.3464 12.2391 24.407C13.232 24.7701 14.304 24.9692 15.4206 24.9692C16.4735 24.9692 17.4864 24.7926 18.4291 24.4676Z" fill="#9B51E0"/>
</svg>
