<svg width="40" height="40" viewBox="0 0 40 40" fill="none" xmlns="http://www.w3.org/2000/svg">
<path d="M20 2.5L5 7.5V22.5C5 30.7852 11.7148 37.5 20 37.5C28.2852 37.5 35 30.7852 35 22.5V7.5L20 2.5ZM32.1875 22.5C32.1875 29.2305 26.7305 34.6875 20 34.6875C13.2695 34.6875 7.8125 29.2305 7.8125 22.5V9.60938L20 5.3125L32.1875 9.60938V22.5Z" fill="white"/>
<path d="M14.7812 18.5586C14.6509 18.4277 14.496 18.3238 14.3254 18.2529C14.1548 18.182 13.9719 18.1455 13.7871 18.1455C13.6024 18.1455 13.4194 18.182 13.2488 18.2529C13.0782 18.3238 12.9233 18.4277 12.793 18.5586C12.662 18.6889 12.5581 18.8438 12.4872 19.0144C12.4163 19.185 12.3799 19.368 12.3799 19.5527C12.3799 19.7375 12.4163 19.9204 12.4872 20.091C12.5581 20.2616 12.662 20.4165 12.793 20.5469L17.8477 25.6015L17.9297 25.6836C18.053 25.8071 18.1994 25.9051 18.3606 25.9719C18.5218 26.0388 18.6946 26.0732 18.8691 26.0732C19.0437 26.0732 19.2165 26.0388 19.3777 25.9719C19.5389 25.9051 19.6853 25.8071 19.8086 25.6836L28.5391 16.9531C28.6626 16.8298 28.7606 16.6834 28.8274 16.5222C28.8943 16.361 28.9287 16.1882 28.9287 16.0137C28.9287 15.8392 28.8943 15.6663 28.8274 15.5051C28.7606 15.3439 28.6626 15.1975 28.5391 15.0742L28.4297 14.9648C28.3064 14.8413 28.16 14.7433 27.9988 14.6765C27.8376 14.6096 27.6648 14.5752 27.4902 14.5752C27.3157 14.5752 27.1429 14.6096 26.9817 14.6765C26.8205 14.7433 26.6741 14.8413 26.5508 14.9648L18.8672 22.6445L14.7812 18.5586Z" fill="white"/>
</svg>
