<svg width="37" height="27" viewBox="0 0 37 27" fill="none" xmlns="http://www.w3.org/2000/svg">
<path d="M23.3333 0C26.8696 0 30.2609 1.40476 32.7614 3.90524C35.2619 6.40573 36.6667 9.79711 36.6667 13.3333C36.6667 16.8696 35.2619 20.2609 32.7614 22.7614C30.2609 25.2619 26.8696 26.6667 23.3333 26.6667C19.7971 26.6667 16.4057 25.2619 13.9052 22.7614C11.4048 20.2609 10 16.8696 10 13.3333C10 9.79711 11.4048 6.40573 13.9052 3.90524C16.4057 1.40476 19.7971 0 23.3333 0ZM23.3333 3.33333C20.6812 3.33333 18.1376 4.3869 16.2623 6.26227C14.3869 8.13763 13.3333 10.6812 13.3333 13.3333C13.3333 15.9855 14.3869 18.529 16.2623 20.4044C18.1376 22.2798 20.6812 23.3333 23.3333 23.3333C25.9855 23.3333 28.529 22.2798 30.4044 20.4044C32.2798 18.529 33.3333 15.9855 33.3333 13.3333C33.3333 10.6812 32.2798 8.13763 30.4044 6.26227C28.529 4.3869 25.9855 3.33333 23.3333 3.33333ZM21.6667 6.66667H24.1667V12.9667L28.05 16.85L26.2833 18.6167L21.6667 14V6.66667ZM1.66667 23.3333C1.22464 23.3333 0.800716 23.1577 0.488155 22.8452C0.175595 22.5326 0 22.1087 0 21.6667C0 21.2246 0.175595 20.8007 0.488155 20.4882C0.800716 20.1756 1.22464 20 1.66667 20H8.05C8.56667 21.1833 9.23333 22.3 10 23.3333H1.66667ZM3.33333 15C2.89131 15 2.46738 14.8244 2.15482 14.5118C1.84226 14.1993 1.66667 13.7754 1.66667 13.3333C1.66667 12.8913 1.84226 12.4674 2.15482 12.1548C2.46738 11.8423 2.89131 11.6667 3.33333 11.6667H6.75L6.66667 13.3333L6.75 15H3.33333ZM5 6.66667C4.55797 6.66667 4.13405 6.49107 3.82149 6.17851C3.50893 5.86595 3.33333 5.44203 3.33333 5C3.33333 4.55797 3.50893 4.13405 3.82149 3.82149C4.13405 3.50893 4.55797 3.33333 5 3.33333H10C9.23333 4.36667 8.56667 5.48333 8.05 6.66667H5Z" fill="white"/>
</svg>
